<svg width="0" height="0" class="hidden">
    <symbol fill="none" xmlns="http://www.w3.org/2000/svg" viewBox="0 0 88 88" id="play">
        <g opacity="0.5">
            <path opacity="0.5" d="M44 7.33331C23.76 7.33331 7.33334 23.76 7.33334 44C7.33334 64.24 23.76 80.6666 44 80.6666C64.24 80.6666 80.6667 64.24 80.6667 44C80.6667 23.76 64.24 7.33331 44 7.33331ZM36.6667 60.5V27.5L58.6667 44L36.6667 60.5Z" fill="black"></path>
        </g>
    </symbol>
    <symbol fill="none" xmlns="http://www.w3.org/2000/svg" viewBox="0 0 15 15" id="star">
        <path d="M7.50001 10.7937L10.0938 12.3625C10.5688 12.65 11.15 12.225 11.025 11.6875L10.3375 8.73748L12.6313 6.74998C13.05 6.38748 12.825 5.69998 12.275 5.65623L9.25627 5.39998L8.07502 2.61248C7.86251 2.10623 7.13751 2.10623 6.92501 2.61248L5.74376 5.39373L2.72501 5.64998C2.17501 5.69373 1.95001 6.38123 2.36876 6.74373L4.66251 8.73123L3.97502 11.6812C3.85002 12.2187 4.43126 12.6437 4.90626 12.3562L7.50001 10.7937Z" fill="CurrentColor"></path>
    </symbol>
    <symbol fill="none" xmlns="http://www.w3.org/2000/svg" viewBox="0 0 7 12" id="slider-arrow">
        <path d="M6.68998 11.29C7.07998 10.9 7.07998 10.27 6.68998 9.87998L2.80998 5.99998L6.68998 2.11998C7.07998 1.72998 7.07998 1.09998 6.68998 0.709977C6.29998 0.319977 5.66998 0.319977 5.27998 0.709977L0.689983 5.29998C0.299984 5.68998 0.299983 6.31998 0.689983 6.70998L5.27998 11.3C5.65998 11.68 6.29998 11.68 6.68998 11.29Z" fill="CurrentColor"></path>
    </symbol>
</svg>